<?xml version="1.0" encoding="utf-8"?>
<!-- Generator: Adobe Illustrator 25.1.0, SVG Export Plug-In . SVG Version: 6.00 Build 0)  -->
<svg version="1.1" id="Layer_1" xmlns="http://www.w3.org/2000/svg" xmlns:xlink="http://www.w3.org/1999/xlink" x="0px" y="0px"
	 viewBox="0 0 1700.8 850.4" style="enable-background:new 0 0 1700.8 850.4;" xml:space="preserve">
<style type="text/css">
	.st0{fill:#A92E23;}
	.st1{fill:#FFFFFF;}
	.st2{fill:#F6EDA3;}
</style>
<polygon class="st0" points="1538.9,262.1 1473.4,588 1526.5,588 1538.9,520 1610.2,520.8 1625.2,588 1679.9,588 1614.4,262.1 "/>
<polygon class="st1" points="1576.7,348.4 1551.4,475.2 1603.6,475.2 "/>
<path class="st0" d="M1266.9,262.1V588h55.6V465.3l21.6,0.8L1388,588h55.6l-42.3-133.5c7.5-5.9,18.7-16.4,27.4-32.3
	c13.1-24.1,12.8-46.6,12.4-61.4c-0.5-21.1-1.2-47.9-20.8-70.4c-16.5-19-37.9-25.2-48-27.4C1337.1,262.7,1302,262.4,1266.9,262.1z"/>
<path class="st1" d="M1323.6,311v106.1h31.6c5.2-2,13.4-6.1,19.8-14.4c9.4-12.2,8.9-25.9,8.3-43.7c-0.6-16-0.9-27.2-9.4-36.7
	c-6.1-7-13.8-10-18.7-11.4H1323.6z"/>
<path class="st0" d="M1055.5,262.1v258.2c0,0,7.7,55.8,59.7,67.7c0,0,27.6,12.4,67.4,0c0,0,43.7-12.4,49.8-65V262.1h-59.2
	l-1.7,252.1c-3.9,13.8-16.5,23.3-30.7,23.2c-14.5-0.1-27.2-10.1-30.7-24.3l-0.6-251H1055.5z"/>
<polygon class="st0" points="857.5,262.2 857.5,311.2 916.4,311.2 916.4,588.1 969.4,588.1 969.4,311.2 1025.8,311.2 1025.8,262.2 
	"/>
<path class="st0" d="M443.7,365.9h56.4v-37.3c0-6.6-0.9-25.8-14.6-43.6c-19.4-25.2-48.8-27.5-53.4-27.7c-5.1-0.9-42.2-6.8-72.6,19.4
	c-23.8,20.6-28.1,47.7-29,54.7c0,62.2,0,124.4,0,186.6c0,17.8,8.6,35.3,23.2,50.6c15.8,16.5,35.3,22.5,46.4,24.9
	c5.8,1.2,34.6,6.5,63-11.6c27.9-17.8,35.5-45.5,36.9-51.4c0-12.2,0-24.3,0-36.5l-54.4,0.8l-0.8,26.5c-2.3,14-14.3,24.5-28.2,24.9
	c-14.5,0.4-27.4-10.2-29.9-24.9c0.3-64.1,0.6-128.3,0.8-192.4c4.6-13.9,18.1-22.5,31.5-20.7c11.2,1.5,20.8,10,24,21.6
	C443.4,341.8,443.6,353.9,443.7,365.9z"/>
<polygon class="st0" points="243.4,260.1 296.5,260.1 296.5,586 243.4,586 173.8,402.7 173.8,586 119.9,586 119.9,260.1 
	172.1,260.1 244.2,458.3 "/>
<rect x="20.6" y="262.2" class="st0" width="57.2" height="329.2"/>
<polygon class="st0" points="739.1,260.1 739.1,586 875.9,586 875.9,532.9 795.4,532.1 794.6,260.1 "/>
<path class="st2" d="M1097.3,341c-0.5-1.1-1.5-2.8-2.8-4.9c-4.2-6.4-7.5-8.2-8.5-12.9c-0.2-1.1-0.4-3,0.1-5.4
	c-2.3,0.8-5.4,2.3-6.3,5.1c-0.9,2.9,1.2,5.7,3.1,8.8c7.7,12.4,3.5,15,9.4,21.5c4.5,4.8,10.6,7.5,12.1,12.2c0.3,0.8,0.8,2.6-0.1,4.1
	c-0.9,1.6-2.5,1.9-2.8,2c0.1,1.5,0.5,3.6,1.6,6c1.2,2.7,2.7,4.5,3.8,5.6c1,0,2,0,3,0l-0.1-31.5c-1.1,0.4-3.6,1.1-6.4,0
	C1099.7,350.2,1097.1,345.9,1097.3,341z"/>
<path class="st2" d="M1094.2,395.2l-9.5-5.7c-0.3-0.2-2.8-1.6-5.6-0.4c-2.2,0.9-3.1,2.8-3.3,3.3c-1.1-0.1-1.7-0.6-2-0.9
	c-2-2.1,0.5-6.9,0.7-7.4c0.8-1.6,1.8-2.6,2.5-3.2c0.7-0.8,1.4-1.7,2.1-2.5c1.7-0.5,3.5-1,5.2-1.5c1.6,0,3.6,0.1,5.8,0.5
	c2,0.4,3.7,0.9,5.1,1.5c1.2,2.1,2.3,4.3,3.5,6.4c0.9,1.7,1.9,3.3,2.8,5c0.5,1.5,1,3.1,1.4,4.8c0.9,3.4,1.5,6.7,2,9.7
	c1.7,1.7,3.4,3.5,5.1,5.2v36.7l-13.6-7.5l-11.6-1.6c-4.4-1.2-8.8-2.4-13.2-3.6c-1.2-1.1-2.3-2.2-3.5-3.3c-1.2-1.8-2.3-3.7-3.5-5.5
	c-0.2-0.6-1.3-4.9,1.5-8.8c2.2-3.1,6.1-4.7,10-4.1c2.8,0.9,5.5,1.8,8.3,2.7c1.1,1.2,2.3,2.3,3.4,3.5c0.2,1.4,0.3,2.9,0.5,4.3
	c-0.5,1.7-2,2.9-3.7,2.9c-1.5,0-2.9-1-3.5-2.5c0-0.8-0.1-2.6-1.4-3.5c-1.8-1.3-5.5-0.4-8.3,3.1c0.1,1.7,0.3,3.3,0.4,5
	c4,0.4,8.1,0.8,12.1,1.1c2.4,0,4.8-0.1,7.3-0.1c1.9,0.4,3.8,0.8,5.7,1.2c1.2,0.8,2.3,1.6,3.5,2.4l2.9,1l-0.2-4.8l-2.7-3.5l-3.8-4.7
	l-3.6-5.2l-8.7-5.5l-9.7-2.3c-0.5-0.6-1.4-2.1-1.6-4.1c-0.2-1.7,0.2-3,0.5-3.7c0.3-0.4,1.5-2,3.7-2.5c1.5-0.3,2.8,0,3.3,0.2
	c2.3,0.7,4.6,1.4,6.9,2.1l3.7,3.6l6.7,6.9l3.7,4.8l3,1.7c-0.6-1.2-1.4-3.1-2.2-5.4c-0.9-2.6-1.2-4.5-1.5-5.3
	C1100.3,403.2,1098.6,399.6,1094.2,395.2z"/>
<path class="st2" d="M1110.1,452.5l-7.8-1.4l-4.8-7.8h-5.7l0.8,7.8l3.1,3.6l-1.5,5l-6,1.2l1.9-5.6l-1.9-5.6l-3.5-4
	c0,0-4.1-3.3-4.5-3.4c-0.3-0.1-6.6-3.6-6.6-3.6l-10.5,1.1l-1.8,4.9l0.9,5.1l3.8,2.9c-0.3-2.1,0.4-4.1,2-5.2c1.4-1,3-0.9,3.4-0.8
	c1.3,5.6,3.7,8.1,5.7,9.4c3,1.9,6.8,1,6.8,3.7c0,0.8,0.5,7.4,0.5,7.4s-0.9,3-1.6,2.6c-0.6-0.4-2.6-4-4.9-6c-2.3-2-5.2-4.5-5.2-4.5
	l-7-0.5c-0.4-0.1-2.5-0.7-4.4,0.5c-0.6,0.4-1.1,0.9-1.3,1.3c-0.4,0.3-0.7,0.8-1,1.3c-1.4,2.6-0.1,5.4,0.2,6c1,1.2,2,2.4,3,3.6
	c1.1-3.6,2.5-4.7,3.7-5c3.7-0.9,12.8,8.4,9.8,6l4.7,5.5l1.3,7.7l-2.1,1.5l-1.5-5.4l-3.9-2.5l-9.2-3.6l-5.8,3.5
	c0.4,2.7,0.7,5.5,1.1,8.2c0.2-0.4,1.7-3.1,4.9-3.8c2.1-0.5,3.8,0.1,4.5,0.4c-0.1,0.6-0.2,1.6,0.1,2.7c0.6,2.2,2.5,3.2,2.9,3.5
	c2.2,1,4.4,2,6.5,3l2.2,3.6c-0.6,0.1-1.5,0.4-2.2,1.1c-1.2,1.2-0.9,2.4-1.9,3.4c-0.5,0.5-1.5,1.1-3.5,0.9c0.4-2-0.2-4-1.7-5
	c-1-0.8-2.2-0.9-2.7-0.9c-0.9,0.6-1.7,1.2-2.6,1.9l-0.2,3.8c0.4,0.6,1.3,1.7,2.9,2.5c2.3,1.1,4.3,0.6,5,0.4c1.9,0,3.9,0,5.8,0
	l3.6,2.1l3,8.6l2.7,9l-0.8,6.1c0,0-1.7-3.3-2.6-3.7c-0.9-0.4-4.8-4.1-4.8-4.1c-0.9-1-1.7-2-2.6-3c-2.1-1.8-4.6-4.4-4-6.4
	c0.8-2.6,6.3-2.4,6.3-3.6c0-1-4-2.2-7.6-1.3c-1,0.2-2.5,0.6-3.7,1.9c-2.6,2.7-1.3,7-1.2,7.3c0.7,0.5,1.4,1.1,2.1,1.6
	c1.5,1.4,2.9,2.8,4.4,4.1c1.2,1,2.4,2,3.7,3l3.9,4.8c0,0,5.7,5.1,6,5.1c0.3,0,6.1,5.9,6.1,5.9c0.7,1.7,0.5,3.6-0.7,4.9
	c-1.2,1.4-3.1,1.9-4.9,1.4c-3.9-0.4-7.3,2.2-7.9,5.7c-0.5,3,1.2,6.1,4.2,7.4c1.3,1.7,2.6,3.3,4,5c2.1,3.3,4.3,6.6,6.4,9.8l8.2,4.1
	c2.7-1.3,5.3-2.6,8-3.8c2,0,4.6-0.1,7.5-0.9c6-1.7,10-5.1,11.9-7c3.4-1,6.7-2,10.1-3l4.6,1.6l10.3,16.6l3.9,3.4
	c0.8-0.3,2.8-1.1,4.4-3.2c1.8-2.4,1.9-5,1.9-5.8c-3.9-0.1-6.3-1.2-7.9-2.2c-5.5-3.6-8.3-11.6-8.3-11.6l8.8,0.6
	c2.4,1.1,7.7,3.9,11.2,10c1.5,2.7,2.3,5.2,2.7,7.2c1.9,0.1,3.8,0.1,5.7,0.2c0-1.5-0.3-3.9-1.3-6.6c-1.1-2.7-2.6-4.6-3.6-5.7
	c-2.7-2.6-5.4-5.2-8.1-7.8l6.7-3.3c2.1,0.1,7.7,0.7,13.1,4.9c4.9,3.8,7,8.6,7.7,10.6c1.8-0.8,3.1-1.7,3.8-2.4c1.2-1,2.6-2.7,2.5-2.8
	c0,0,0,0,0,0c-0.2,0-0.3-3.2-1-4.9c0,0-0.4-0.8-4.7-3.7l-11-2.8l14.6-0.2l9.8,4.7c0.7,0.2,2.3,0.4,4-0.3c3.1-1.2,4.1-4.2,4.2-4.7
	c0.2-0.5,0.9-1.9,0.5-3.8c-0.5-2.2-2-3.4-2.4-3.6c-2.4-0.1-5.3,0-8.6,0.4c-3.2,0.4-5.9,1.1-8.2,1.9c1.3-1.9,2.7-3.9,4-5.8l11.7-2.1
	l6,0.8c0.9-0.5,2.1-1.2,3.3-2.6c1.7-2,2.4-4.1,2.6-5.2c-0.3-1-0.9-2.2-1.8-3.5c-1.2-1.8-2.6-2.9-3.6-3.6c-1.3,0.2-3.4,0.6-5.7,1.7
	c-1.5,0.7-2.5,1.4-3,1.8c-2,1.4-5.2,6.5-15,9.7c-0.3,0.1-7.5,4.6-7.5,4.6l17.3-19.9l14.9-2l5.1-3.1l0.9-3.1l-7.9-3.5l-10.2,1.1
	l-5.9,1.8l0.8-10.8l-0.8-24.9c0,0,6.3-0.2,6.6-0.1c0.3,0.1,3.8,4.4,4.6,4.6c0.7,0.2,10.5,1.5,10.5,1.5l2.3-4.9c0,0-2.6-4.8-3.3-4.9
	c-0.7-0.1-6.6-4.4-6.9-4.5c-0.3-0.1-5.6-2.1-5.6-2.1l-8.6,0.2l1.2-22c1.7-0.8,4.2-1.6,6.9-1.1c2.9,0.4,4.3,1.9,5.7,1.1
	c2-1.1,0.7-4.9,2.8-5.9c1.8-0.9,5.2,0.7,5.2,0.7c0.7-1.3,1.3-2.6,2-3.9c1.1-3.7,1.1-5.8,0.2-6.4c-1.3-0.8-4.5,1.2-9.5,6.2
	c-1.3,0.8-3.3,1.7-5.8,2.3c-3.1,0.7-5.8,0.5-7.5,0.2l0.1-3.6c0,0,13.1-9.2,13.4-9.2c0.3,0,9.7-3.1,9.7-3.1l2.4-4.4V418l-1.6-5.2
	l-3.8-1.2c-0.1,0.5-0.8,3.2-3.5,4.8c-2.9,1.7-5.8,0.7-6.2,0.5c-1,2.6-2.1,5.3-3.1,7.9c-1.5,2.3-3.5,3.5-4.6,3.1
	c-1.2-0.5-1.7-3.4-0.3-6.8c-0.3-2.5-1.9-4.6-4-5.3c-2.1-0.7-3.9,0.2-4.4,0.4c-1.7,3.8-2.2,4.6-2.4,4.6c-0.3-0.1,0.8-2.3-0.2-3.8
	c-0.7-1.1-2.2-1.4-3.3-1.6c-4.4,1.2-7.2,4.7-6.8,8c0.2,2.3,1.9,3.8,2.6,4.4c-3.1-0.7-4.9-0.7-5.4,0.2c-0.7,1.2,1.2,4.1,5.7,8.5
	l5.8,5.3c0,0,3,4.4,3.1,5.1c0.1,0.7,0.9,8,0.9,8l-2,7.2c-0.9,10.7-4.6,16.4-8,19.7c-2.8,2.7-6.3,4.6-5.9,6.1
	c0.5,1.7,5.6,1.7,10.1,1.4c0.4,3.4-0.6,6.6-2.7,7.8c-1.9,1-4.1,0.3-6.8-0.5c-2.3-0.7-4-1.7-5.1-2.3c2,2.6,4,5.3,6,7.9
	c1.7,0.9,3.3,1.9,5,2.8c1.5,0.3,2.9,0.7,4.4,1c1.1-0.6,2.3-1.2,3.4-1.7l0.5,6.1l-1.1,5.8c-4.6-0.3-6.9-1.8-8.2-3.3
	c-1.5-1.8-4.5-8.2-3.4-6.1c0,0-4.6-1.7-6,0.1c-0.4,0.6-0.4,1.3-0.3,1.8c0.8,6.8,4.5,12.4,4.5,12.4c1.1,1.7,2.7,3.9,5,6.3l9.4-2.6
	l-7,11.2l-11.4,9.7l-6.7,5.4l-12.7,5.7c0,0-7.8,0.2-8.1,0.2c-0.3,0,1.5-8.2,1.5-8.2l-1.9-5.5l-7.7,2.2c0.1,0.7,0.5,3.6-1.2,6.4
	c-1.9,3.1-5,3.9-5.6,4c-2.8,2.5-5.6,5-8.4,7.5c0.3-2.6,1.1-7.5,4.6-12.2c1.6-2.3,3.4-3.9,4.9-5.1c-2.2-1.8-4.4-3.5-6.5-5.3l-4.4,5.9
	l-3.6,10.4c0,0-2,1.4-2.9,0.7c-0.4-0.3-0.4-0.9-0.4-1.1c-0.1-6.7-1.9-9.9,0.5-14.1c0.9-1.6,2.9-4,2.9-4c-0.6-0.3-2.1-1-3.2-2.6
	c-1.4-2.1-1.3-4.3-1.2-4.9c-0.3,0.6-1.3,2.6-3.6,3.6c-3.2,1.4-6.2-0.1-6.5-0.3c-0.8,1.4-1.5,2.8-2.3,4.2l4.6,5.2l4.1,11.9l-2,8
	l-3.8,5l-8.3,4.9l-2-5.3l8-2.8c-6-0.7-10-4.1-10-7.1c0-3,4.3-5.5,6.9-6.4c0,0,1.5-0.5,8.4-0.9l0,0l-7.2-7.4l-8.3-6.3l4.7-7.6
	l8.3,0.9l7.8-0.7l1.9-2.5l-4.4-5.8l-6.4,1.4l-5.8-0.2l8.1-6.5l1-1.9l-0.3-15.9l-7.3,2.7l-3.4,7.2l-2.5,6.8c0,0-1.8,1-2.1,1
	c-0.3,0-0.7-10.3-0.7-10.3l5.2-7l6.7-2.7l4.1-2.2l0-10.6l-7,3.6l-5,4.8l-4.8,4.4l-2.3-1.3l2.7-6.7l9.6-7.6l6.7-1.6l0-16.9l-4.8,1.3
	l-8.4,8.4l-3.1,7.2c0,0-3.7,3.9-4,3.9c-0.3,0-1.5-5.4-1.5-5.4l4.6-6.9l5.4-5.1l7-6.3l2.9-1.8l1.8-2.6L1110.1,452.5z"/>
<path class="st2" d="M1071.5,531.5c0,0,11.6,2,12.8,7.9c0,0,3.8,10.2-3.7,9.8c0,0-10.9,0.3-14.9-10
	C1065.7,539.2,1064.7,531.7,1071.5,531.5z"/>
<path class="st2" d="M1137.5,584.7c-0.1,0.5-0.3,1.4-1,2c-1.9,1.7-5.9,0.7-6.2-0.7c-0.1-0.4,0-1.2,1.7-2.5c-5.7,1.3-7.5,0.8-8-0.1
	c-0.5-0.8,0.5-1.6,0.6-4.3c0.1-2.4-0.6-3.1-0.1-4.3c0.3-0.7,1.2-1.4,3.9-2.4c6-2.2,13.1,0.6,13.1,0.6s6.4,0.3,7.3,5.2
	c0.7,3.7,1.6,7.6,0.3,9.2c-0.6,0.7-1.4,1.3-1.4,1.3c-0.5,0.3-1.3,0.9-2.2,1c-1.5,0.3-2.7-0.5-3.1-0.8c-4.4-2.7-3.8-5.3-3.8-5.3
	C1138.1,584,1137.8,584.3,1137.5,584.7z"/>
<path class="st2" d="M1165.1,533.1c0,0-2.8-0.2-4.4,4.6s-3.5,1.9-3.5,1.9s-5.6,6.1-0.8,8.9s9.3,1.7,9.3,1.7c1-0.8,2.1-1.8,3.2-3
	c2.1-2.3,3.5-4.7,4.4-6.6c0.2,0.3,0.9,1.5,2.5,2c2,0.6,3.6-0.4,3.8-0.5c0.5-0.6,1-1.3,1.4-2.2c1-1.8,1.5-3.5,1.8-4.8
	c0.9-3.5,0.4-5.7-0.3-7.2c-2-3.8-7.6-6.1-7.6-6.1l0,0c-2.8,2.5-3.3,4.2-3.1,5.4c0.2,1.5,1.4,2,2.3,4.7c0.4,1.1,1.2,3.6,0.3,3.6
	c-0.2,0-6.8-2.3-7-2.3C1167.1,533.1,1165.1,533.1,1165.1,533.1z"/>
<path class="st2" d="M1209.3,492.6c0,0,17.6,1.6,17.9,6.6c0,0,3.6,7.3-1.2,8.2c0,0-21.6,8.3-19.5-12.6
	C1206.5,494.9,1208.3,491.6,1209.3,492.6z"/>
<path class="st2" d="M1208.5,467.2c0.3,0.6,2.5,4.9,7.2,5.8c2.7,0.5,4.8-0.2,5.9-0.7c9.7-4.4,5.8-9.5,5.8-9.5
	c-2.4-2.3-7.6-6.3-14.2-6.2c-2.1,0-5.9,0-7.3,2.5C1204.8,461.2,1205.8,464.5,1208.5,467.2z"/>
<path class="st2" d="M1183.5,310.9c1.2-0.3,4.8-1.1,8,0.7c4.4,2.5,6.5,8.9,4.3,15.3c1.3,3.5,2.6,7.1,3.9,10.6c1.2,3.8,1.4,6.9,1.2,9
	c-0.1,1.4-0.3,2.3-0.5,5c-0.2,2.7-0.3,5-0.3,6.5c0.5-0.3,1.6-0.9,2.3-2.3c0.4-0.8,0.5-1.5,0.6-1.9c0.7-5.1,1.5-10.2,2.2-15.3l-1-7.6
	l-2.3-8.6l4.1-4.7l6.6-1.5l6.4,5.8c0,0,0.7,5,0.7,6.2c0,1.2-5.7,13.5-5.7,13.5l-8.6,16.4l-2.3,15.9c0,0,3.3-3.7,3.7-3.9
	c0.4-0.1,3.7-18.1,3.7-18.1l7.2-10.2c0,0,4.6,0.4,6.5,1.8c1.9,1.4,3.3,2.3,3.3,5s0.4,6.5,0,7.5s-2.5,2.2-3.9,3.6
	c-1.4,1.4-6.9,4.4-6.9,4.4s-4.1,2.9-4.6,4.6c-0.4,1.7-0.4,2.2-1.5,4.7c-1.1,2.5-2.8,5.3-2.8,5.3l5.1-1.2c0,0,4.4-4.6,5.3-6.4
	c0.8-1.8,3.6-3.7,5.3-3.3c1.7,0.4,2.6,3,3,3.7c0.4,0.7,1.8,5.9,1.8,7.2c0,1.2-3.7,6.1-3.7,6.1l-6.8,1.9c-6,1.7-12,3.4-18,5.1
	c-3.6,3.5-7.2,7-10.8,10.5c0,0,6.9-0.6,7.3-0.7c0.4-0.1,10.6-6.2,11.1-6.5s8.6-1.2,10.2,0.1c1.7,1.4,0.7,10.4,0.7,10.4l-5.5,3.6
	H1200l-13,0.7l-7.7,5.1l-4.1,3.5l-2.1-8.7l1.1-9.7l5.7-3.7l4.3-5.4l-1.5-8.2l-4.8-2.1l-3.5-4.3l0.4-8.8c3.7,0.2,7.5,0.4,11.2,0.6
	c1.9,2.5,4,6,4.7,10.6c1.3,8.2-2.7,14.6-1.7,15.2c0.7,0.4,3.1-1.9,10.5-12.9c-0.1-2.3-0.6-5.9-2.6-9.5c-5-9.2-15.2-11.2-16.9-11.5
	c-0.6-0.4-1.3-0.8-1.9-1.2l-1.9-6.5l2.3-2.2c6.1,2.6,12.2,5.3,18.2,7.9c-1.3-2.3-4-6.1-8.6-9.1c-2.6-1.7-5.1-2.7-7-3.3l-4.7-3
	l-1.2-7.9c0,0,5.3,0.4,5.5,0.8c0.3,0.4,7.9,1.7,7.9,1.7c2.9,4.3,5.7,8.6,8.6,12.9c-1.9-6.4-3.9-12.9-5.8-19.3l-8.4-1.7
	c-2.8-2.2-3.9-4.4-4.3-5.9c-0.6-2.1-0.5-8.8-0.4-6.6l0,0L1183.5,310.9z"/>
<path class="st2" d="M1187.7,442.8c0,0-17.1,7.7-7,22.1C1180.7,464.9,1199.6,453.7,1187.7,442.8z"/>
<path class="st0" d="M527.1,259.4v258.2c0,0,7.7,55.8,59.7,67.7c0,0,27.6,12.4,67.4,0c0,0,43.7-12.4,49.8-65V259.4h-59.2l-1.7,252.1
	c-3.9,13.8-16.5,23.3-30.7,23.2c-14.5-0.1-27.2-10.1-30.7-24.3l-0.6-251H527.1z"/>
<path class="st2" d="M567.8,341c-0.5-1.1-1.5-2.8-2.8-4.9c-4.2-6.4-7.5-8.2-8.5-12.9c-0.2-1.1-0.4-3,0.1-5.4
	c-2.3,0.8-5.4,2.3-6.3,5.1c-0.9,2.9,1.2,5.7,3.1,8.8c7.7,12.4,3.5,15,9.4,21.5c4.5,4.8,10.6,7.5,12.1,12.2c0.3,0.8,0.8,2.6-0.1,4.1
	c-0.9,1.6-2.5,1.9-2.8,2c0.1,1.5,0.5,3.6,1.6,6c1.2,2.7,2.7,4.5,3.8,5.6c1,0,2,0,3,0l-0.1-31.5c-1.1,0.4-3.6,1.1-6.4,0
	C570.2,350.2,567.6,345.9,567.8,341z"/>
<path class="st2" d="M564.7,395.2l-9.5-5.7c-0.3-0.2-2.8-1.6-5.6-0.4c-2.2,0.9-3.1,2.8-3.3,3.3c-1.1-0.1-1.7-0.6-2-0.9
	c-2-2.1,0.5-6.9,0.7-7.4c0.8-1.6,1.8-2.6,2.5-3.2c0.7-0.8,1.4-1.7,2.1-2.5c1.7-0.5,3.5-1,5.2-1.5c1.6,0,3.6,0.1,5.8,0.5
	c2,0.4,3.7,0.9,5.1,1.5c1.2,2.1,2.3,4.3,3.5,6.4c0.9,1.7,1.9,3.3,2.8,5c0.5,1.5,1,3.1,1.4,4.8c0.9,3.4,1.5,6.7,2,9.7
	c1.7,1.7,3.4,3.5,5.1,5.2v36.7l-13.6-7.5l-11.6-1.6c-4.4-1.2-8.8-2.4-13.2-3.6c-1.2-1.1-2.3-2.2-3.5-3.3c-1.2-1.8-2.3-3.7-3.5-5.5
	c-0.2-0.6-1.3-4.9,1.5-8.8c2.2-3.1,6.1-4.7,10-4.1c2.8,0.9,5.5,1.8,8.3,2.7c1.1,1.2,2.3,2.3,3.4,3.5c0.2,1.4,0.3,2.9,0.5,4.3
	c-0.5,1.7-2,2.9-3.7,2.9c-1.5,0-2.9-1-3.5-2.5c0-0.8-0.1-2.6-1.4-3.5c-1.8-1.3-5.5-0.4-8.3,3.1c0.1,1.7,0.3,3.3,0.4,5
	c4,0.4,8.1,0.8,12.1,1.1c2.4,0,4.8-0.1,7.3-0.1c1.9,0.4,3.8,0.8,5.7,1.2c1.2,0.8,2.3,1.6,3.5,2.4l2.9,1l-0.2-4.8l-2.7-3.5l-3.8-4.7
	l-3.6-5.2l-8.7-5.5l-9.7-2.3c-0.5-0.6-1.4-2.1-1.6-4.1c-0.2-1.7,0.2-3,0.5-3.7c0.3-0.4,1.5-2,3.7-2.5c1.5-0.3,2.8,0,3.3,0.2
	c2.3,0.7,4.6,1.4,6.9,2.1l3.7,3.6l6.7,6.9l3.7,4.8l3,1.7c-0.6-1.2-1.4-3.1-2.2-5.4c-0.9-2.6-1.2-4.5-1.5-5.3
	C570.8,403.2,569.1,399.6,564.7,395.2z"/>
<path class="st2" d="M580.6,452.5l-7.8-1.4l-4.8-7.8h-5.7l0.8,7.8l3.1,3.6l-1.5,5l-6,1.2l1.9-5.6l-1.9-5.6l-3.5-4
	c0,0-4.1-3.3-4.5-3.4s-6.6-3.6-6.6-3.6l-10.5,1.1l-1.8,4.9l0.9,5.1l3.8,2.9c-0.3-2.1,0.4-4.1,2-5.2c1.4-1,3-0.9,3.4-0.8
	c1.3,5.6,3.7,8.1,5.7,9.4c3,1.9,6.8,1,6.8,3.7c0,0.8,0.5,7.4,0.5,7.4s-0.9,3-1.6,2.6c-0.6-0.4-2.6-4-4.9-6c-2.3-2-5.2-4.5-5.2-4.5
	l-7-0.5c-0.4-0.1-2.5-0.7-4.4,0.5c-0.6,0.4-1.1,0.9-1.3,1.3c-0.4,0.3-0.7,0.8-1,1.3c-1.4,2.6-0.1,5.4,0.2,6c1,1.2,2,2.4,3,3.6
	c1.1-3.6,2.5-4.7,3.7-5c3.7-0.9,12.8,8.4,9.8,6l4.7,5.5l1.3,7.7l-2.1,1.5l-1.5-5.4l-3.9-2.5l-9.2-3.6l-5.8,3.5
	c0.4,2.7,0.7,5.5,1.1,8.2c0.2-0.4,1.7-3.1,4.9-3.8c2.1-0.5,3.8,0.1,4.5,0.4c-0.1,0.6-0.2,1.6,0.1,2.7c0.6,2.2,2.5,3.2,2.9,3.5
	c2.2,1,4.4,2,6.5,3l2.2,3.6c-0.6,0.1-1.5,0.4-2.2,1.1c-1.2,1.2-0.9,2.4-1.9,3.4c-0.5,0.5-1.5,1.1-3.5,0.9c0.4-2-0.2-4-1.7-5
	c-1-0.8-2.2-0.9-2.7-0.9c-0.9,0.6-1.7,1.2-2.6,1.9l-0.2,3.8c0.4,0.6,1.3,1.7,2.9,2.5c2.3,1.1,4.3,0.6,5,0.4c1.9,0,3.9,0,5.8,0
	l3.6,2.1l3,8.6l2.7,9l-0.8,6.1c0,0-1.7-3.3-2.6-3.7c-0.9-0.4-4.8-4.1-4.8-4.1c-0.9-1-1.7-2-2.6-3c-2.1-1.8-4.6-4.4-4-6.4
	c0.8-2.6,6.3-2.4,6.3-3.6c0-1-4-2.2-7.6-1.3c-1,0.2-2.5,0.6-3.7,1.9c-2.6,2.7-1.3,7-1.2,7.3c0.7,0.5,1.4,1.1,2.1,1.6
	c1.5,1.4,2.9,2.8,4.4,4.1c1.2,1,2.4,2,3.7,3l3.9,4.8c0,0,5.7,5.1,6,5.1s6.1,5.9,6.1,5.9c0.7,1.7,0.5,3.6-0.7,4.9
	c-1.2,1.4-3.1,1.9-4.9,1.4c-3.9-0.4-7.3,2.2-7.9,5.7c-0.5,3,1.2,6.1,4.2,7.4c1.3,1.7,2.6,3.3,4,5c2.1,3.3,4.3,6.6,6.4,9.8l8.2,4.1
	c2.7-1.3,5.3-2.6,8-3.8c2,0,4.6-0.1,7.5-0.9c6-1.7,10-5.1,11.9-7c3.4-1,6.7-2,10.1-3l4.6,1.6l10.3,16.6l3.9,3.4
	c0.8-0.3,2.8-1.1,4.4-3.2c1.8-2.4,1.9-5,1.9-5.8c-3.9-0.1-6.3-1.2-7.9-2.2c-5.5-3.6-8.3-11.6-8.3-11.6l8.8,0.6
	c2.4,1.1,7.7,3.9,11.2,10c1.5,2.7,2.3,5.2,2.7,7.2c1.9,0.1,3.8,0.1,5.7,0.2c0-1.5-0.3-3.9-1.3-6.6c-1.1-2.7-2.6-4.6-3.6-5.7
	c-2.7-2.6-5.4-5.2-8.1-7.8l6.7-3.3c2.1,0.1,7.7,0.7,13.1,4.9c4.9,3.8,7,8.6,7.7,10.6c1.8-0.8,3.1-1.7,3.8-2.4c1.2-1,2.6-2.7,2.5-2.8
	c0,0,0,0,0,0c-0.2,0-0.3-3.2-1-4.9c0,0-0.4-0.8-4.7-3.7l-11-2.8l14.6-0.2l9.8,4.7c0.7,0.2,2.3,0.4,4-0.3c3.1-1.2,4.1-4.2,4.2-4.7
	c0.2-0.5,0.9-1.9,0.5-3.8c-0.5-2.2-2-3.4-2.4-3.6c-2.4-0.1-5.3,0-8.6,0.4c-3.2,0.4-5.9,1.1-8.2,1.9c1.3-1.9,2.7-3.9,4-5.8l11.7-2.1
	l6,0.8c0.9-0.5,2.1-1.2,3.3-2.6c1.8-2,2.4-4.1,2.6-5.2c-0.3-1-0.9-2.2-1.8-3.5c-1.2-1.8-2.6-2.9-3.6-3.6c-1.3,0.2-3.4,0.6-5.7,1.7
	c-1.5,0.7-2.5,1.4-3,1.8c-2,1.4-5.2,6.5-15,9.7c-0.3,0.1-7.5,4.6-7.5,4.6l17.3-19.9l14.9-2l5.1-3.1l0.9-3.1l-7.9-3.5l-10.2,1.1
	l-5.9,1.8l0.8-10.8l-0.8-24.9c0,0,6.3-0.2,6.6-0.1c0.3,0.1,3.8,4.4,4.6,4.6c0.7,0.2,10.5,1.5,10.5,1.5l2.3-4.9c0,0-2.6-4.8-3.3-4.9
	c-0.7-0.1-6.6-4.4-6.9-4.5s-5.6-2.1-5.6-2.1l-8.6,0.2l1.2-22c1.7-0.8,4.2-1.6,6.9-1.1c2.9,0.4,4.3,1.9,5.7,1.1
	c2-1.1,0.7-4.9,2.8-5.9c1.8-0.9,5.2,0.7,5.2,0.7c0.7-1.3,1.3-2.6,2-3.9c1.1-3.7,1.1-5.8,0.2-6.4c-1.3-0.8-4.5,1.2-9.5,6.2
	c-1.3,0.8-3.3,1.7-5.8,2.3c-3.1,0.7-5.8,0.5-7.5,0.2l0.1-3.6c0,0,13.1-9.2,13.4-9.2c0.3,0,9.7-3.1,9.7-3.1l2.4-4.4V418l-1.6-5.2
	l-3.8-1.2c-0.1,0.5-0.8,3.2-3.5,4.8c-2.9,1.7-5.8,0.7-6.2,0.5c-1,2.6-2.1,5.3-3.1,7.9c-1.5,2.3-3.5,3.5-4.6,3.1
	c-1.2-0.5-1.7-3.4-0.3-6.8c-0.3-2.5-1.9-4.6-4-5.3c-2.1-0.7-3.9,0.2-4.4,0.4c-1.7,3.8-2.2,4.6-2.4,4.6c-0.3-0.1,0.8-2.3-0.2-3.8
	c-0.7-1.1-2.2-1.4-3.3-1.6c-4.4,1.2-7.2,4.7-6.8,8c0.2,2.3,1.9,3.8,2.6,4.4c-3.1-0.7-4.9-0.7-5.4,0.2c-0.7,1.2,1.2,4.1,5.7,8.5
	l5.8,5.3c0,0,3,4.4,3.1,5.1c0.1,0.7,0.9,8,0.9,8l-2,7.2c-0.9,10.7-4.6,16.4-8,19.7c-2.8,2.7-6.3,4.6-5.9,6.1
	c0.5,1.7,5.6,1.7,10.1,1.4c0.4,3.4-0.6,6.6-2.7,7.8c-1.9,1-4.1,0.3-6.8-0.5c-2.3-0.7-4-1.7-5.1-2.3c2,2.6,4,5.3,6,7.9
	c1.7,0.9,3.3,1.9,5,2.8c1.5,0.3,2.9,0.7,4.4,1c1.1-0.6,2.3-1.2,3.4-1.7l0.5,6.1l-1.1,5.8c-4.6-0.3-6.9-1.8-8.2-3.3
	c-1.5-1.8-4.5-8.2-3.4-6.1c0,0-4.6-1.7-6,0.1c-0.4,0.6-0.4,1.3-0.3,1.8c0.8,6.8,4.5,12.4,4.5,12.4c1.1,1.7,2.7,3.9,5,6.3l9.4-2.6
	l-7,11.2l-11.4,9.7l-6.7,5.4l-12.7,5.7c0,0-7.8,0.2-8.1,0.2c-0.3,0,1.5-8.2,1.5-8.2l-1.9-5.5l-7.7,2.2c0.1,0.7,0.5,3.6-1.2,6.4
	c-1.9,3.1-5,3.9-5.6,4c-2.8,2.5-5.6,5-8.4,7.5c0.3-2.6,1.1-7.5,4.6-12.2c1.6-2.3,3.4-3.9,4.9-5.1c-2.2-1.8-4.4-3.5-6.5-5.3l-4.4,5.9
	l-3.6,10.4c0,0-2,1.4-2.9,0.7c-0.4-0.3-0.4-0.9-0.4-1.1c-0.1-6.7-1.9-9.9,0.5-14.1c0.9-1.6,2.9-4,2.9-4c-0.6-0.3-2.1-1-3.2-2.6
	c-1.4-2.1-1.3-4.3-1.2-4.9c-0.3,0.6-1.3,2.6-3.6,3.6c-3.2,1.4-6.2-0.1-6.5-0.3c-0.8,1.4-1.5,2.8-2.3,4.2l4.6,5.2l4.1,11.9l-2,8
	l-3.8,5l-8.3,4.9l-2-5.3l8-2.8c-6-0.7-10-4.1-10-7.1c0-3,4.3-5.5,6.9-6.4c0,0,1.5-0.5,8.4-0.9l0,0l-7.2-7.4l-8.3-6.3l4.7-7.6
	l8.3,0.9l7.8-0.7l1.9-2.5l-4.4-5.8l-6.4,1.4l-5.8-0.2l8.1-6.5l1-1.9l-0.3-15.9l-7.3,2.7l-3.4,7.2l-2.5,6.8c0,0-1.8,1-2.1,1
	s-0.7-10.3-0.7-10.3l5.2-7l6.7-2.7l4.1-2.2l0-10.6l-7,3.6l-5,4.8l-4.8,4.4l-2.3-1.3l2.7-6.7l9.6-7.6l6.7-1.6l0-16.9l-4.8,1.3
	l-8.4,8.4l-3.1,7.2c0,0-3.7,3.9-4,3.9s-1.5-5.4-1.5-5.4l4.6-6.9l5.4-5.1l7-6.3l2.9-1.8l1.8-2.6L580.6,452.5z"/>
<path class="st2" d="M542,531.5c0,0,11.6,2,12.8,7.9c0,0,3.8,10.2-3.7,9.8c0,0-10.9,0.3-14.9-10C536.2,539.2,535.2,531.7,542,531.5z
	"/>
<path class="st2" d="M608,584.7c-0.1,0.5-0.3,1.4-1,2c-1.9,1.7-5.9,0.7-6.2-0.7c-0.1-0.4,0-1.2,1.7-2.5c-5.7,1.3-7.5,0.8-8-0.1
	c-0.5-0.8,0.5-1.6,0.6-4.3c0.1-2.4-0.6-3.1-0.1-4.3c0.3-0.7,1.2-1.4,3.9-2.4c6-2.2,13.1,0.6,13.1,0.6s6.4,0.3,7.3,5.2
	c0.7,3.7,1.6,7.6,0.3,9.2c-0.6,0.7-1.4,1.3-1.4,1.3c-0.5,0.3-1.3,0.9-2.2,1c-1.5,0.3-2.7-0.5-3.1-0.8c-4.4-2.7-3.8-5.3-3.8-5.3
	C608.6,584,608.3,584.3,608,584.7z"/>
<path class="st2" d="M635.6,533.1c0,0-2.8-0.2-4.4,4.6c-1.6,4.8-3.5,1.9-3.5,1.9s-5.6,6.1-0.8,8.9c4.8,2.8,9.3,1.7,9.3,1.7
	c1-0.8,2.1-1.8,3.2-3c2.1-2.3,3.5-4.7,4.4-6.6c0.2,0.3,0.9,1.5,2.5,2c2,0.6,3.6-0.4,3.8-0.5c0.5-0.6,1-1.3,1.4-2.2
	c1-1.8,1.5-3.5,1.8-4.8c0.9-3.5,0.4-5.7-0.3-7.2c-2-3.8-7.6-6.1-7.6-6.1l0,0c-2.8,2.5-3.3,4.2-3.1,5.4c0.2,1.5,1.4,2,2.3,4.7
	c0.4,1.1,1.2,3.6,0.3,3.6c-0.2,0-6.8-2.3-7-2.3C637.6,533.1,635.6,533.1,635.6,533.1z"/>
<path class="st2" d="M679.8,492.6c0,0,17.6,1.6,17.9,6.6c0,0,3.6,7.3-1.2,8.2c0,0-21.6,8.3-19.5-12.6
	C677,494.9,678.8,491.6,679.8,492.6z"/>
<path class="st2" d="M679,467.2c0.3,0.6,2.5,4.9,7.2,5.8c2.7,0.5,4.8-0.2,5.9-0.7c9.7-4.4,5.8-9.5,5.8-9.5
	c-2.4-2.3-7.6-6.3-14.2-6.2c-2.1,0-5.9,0-7.3,2.5C675.3,461.2,676.3,464.5,679,467.2z"/>
<path class="st2" d="M654,310.9c1.2-0.3,4.8-1.1,8,0.7c4.4,2.5,6.5,8.9,4.3,15.3c1.3,3.5,2.6,7.1,3.9,10.6c1.2,3.8,1.4,6.9,1.2,9
	c-0.1,1.4-0.3,2.3-0.5,5c-0.2,2.7-0.3,5-0.3,6.5c0.5-0.3,1.6-0.9,2.3-2.3c0.4-0.8,0.5-1.5,0.6-1.9c0.7-5.1,1.5-10.2,2.2-15.3l-1-7.6
	l-2.3-8.6l4.1-4.7l6.6-1.5l6.4,5.8c0,0,0.7,5,0.7,6.2c0,1.2-5.7,13.5-5.7,13.5l-8.6,16.4l-2.3,15.9c0,0,3.3-3.7,3.7-3.9
	c0.4-0.1,3.7-18.1,3.7-18.1l7.2-10.2c0,0,4.6,0.4,6.5,1.8c1.9,1.4,3.3,2.3,3.3,5s0.4,6.5,0,7.5c-0.4,1-2.5,2.2-3.9,3.6
	c-1.4,1.4-6.9,4.4-6.9,4.4s-4.1,2.9-4.6,4.6c-0.4,1.7-0.4,2.2-1.5,4.7c-1.1,2.5-2.8,5.3-2.8,5.3l5.1-1.2c0,0,4.4-4.6,5.3-6.4
	c0.8-1.8,3.6-3.7,5.3-3.3c1.7,0.4,2.6,3,3,3.7c0.4,0.7,1.8,5.9,1.8,7.2c0,1.2-3.7,6.1-3.7,6.1l-6.8,1.9c-6,1.7-12,3.4-18,5.1
	c-3.6,3.5-7.2,7-10.8,10.5c0,0,6.9-0.6,7.3-0.7c0.4-0.1,10.6-6.2,11.1-6.5c0.4-0.3,8.6-1.2,10.2,0.1c1.7,1.4,0.7,10.4,0.7,10.4
	l-5.5,3.6h-12.9l-13,0.7l-7.7,5.1l-4.1,3.5l-2.1-8.7l1.1-9.7l5.7-3.7l4.3-5.4l-1.5-8.2l-4.8-2.1l-3.5-4.3l0.4-8.8
	c3.7,0.2,7.5,0.4,11.2,0.6c1.9,2.5,4,6,4.7,10.6c1.3,8.2-2.7,14.6-1.7,15.2c0.7,0.4,3.1-1.9,10.5-12.9c-0.1-2.3-0.6-5.9-2.6-9.5
	c-5-9.2-15.2-11.2-16.9-11.5c-0.6-0.4-1.3-0.8-1.9-1.2l-1.9-6.5l2.3-2.2c6.1,2.6,12.2,5.3,18.2,7.9c-1.3-2.3-4-6.1-8.6-9.1
	c-2.6-1.7-5.1-2.7-7-3.3l-4.7-3l-1.2-7.9c0,0,5.3,0.4,5.5,0.8c0.3,0.4,7.9,1.7,7.9,1.7c2.9,4.3,5.7,8.6,8.6,12.9
	c-1.9-6.4-3.9-12.9-5.8-19.3l-8.4-1.7c-2.8-2.2-3.9-4.4-4.3-5.9c-0.6-2.1-0.5-8.8-0.4-6.6l0,0L654,310.9z"/>
<path class="st2" d="M658.2,442.8c0,0-17.1,7.7-7,22.1C651.2,464.9,670.1,453.7,658.2,442.8z"/>
</svg>
