<?xml version="1.0" encoding="utf-8"?>
<!-- Generator: Adobe Illustrator 25.1.0, SVG Export Plug-In . SVG Version: 6.00 Build 0)  -->
<svg version="1.1" id="Layer_1" xmlns="http://www.w3.org/2000/svg" xmlns:xlink="http://www.w3.org/1999/xlink" x="0px" y="0px"
	 viewBox="0 0 2834.6 2834.6" style="enable-background:new 0 0 2834.6 2834.6;" xml:space="preserve">
<style type="text/css">
	.st0{fill:#A92E23;}
	.st1{fill:#F6EDA3;}
	.st2{fill:#F2CF99;}
</style>
<path class="st0" d="M1469.6,28.8c-29,44.5-71.2,107.2-125.5,180.2c-34.1,46-76,102.3-134.6,171.1
	C1095,514.4,1056,532.7,1020.2,612.7c-26.9,60.2-34.4,115.9-36.5,152.8c-36.9,8.6-88.9,29-143.4,67.3
	c-72.1,50.8-145.1,135.7-148.6,272.6c-108.7,129.3-217.5,258.5-326.2,387.8c104.9,120.1,209.9,240.3,314.8,360.4
	c4.6,52.3,24.3,197.8,139.2,328.5c84,95.6,180,138.8,230.4,157.4c0,0,351.3,383.2,419.7,465.4c0,0,399.2-447.1,403.8-472.2
	c48.6-28.9,166.9-108.3,237.2-262.3c46.9-102.7,53.2-196.3,52.5-250.9c70-69.2,139.9-138.4,209.9-207.6
	c31.9-37.3,63.9-74.5,95.8-111.8c-20.1-33.3-42.8-67.7-68.4-102.7c-75.1-102.5-155.3-182.6-228.1-244.1
	c-2.9-49.7-9.5-106.5-26.2-167.1c-27.9-100.9-85.5-236.7-204.2-375.8c-60-74.6-114-130.8-152.8-168.8
	c-85.3-83.6-106.3-88.2-152.8-150.6c-27.6-36.9-31.6-50.5-104.9-166.5C1505.6,84.1,1484.1,51,1469.6,28.8z"/>
<path class="st1" d="M1469.6,221.5c-39.2,62.8-75.5,107.8-102.1,137.9c-15.4,17.5-36,39.3-72.4,81.1c-22.8,26.2-41.3,48-53.6,62.7
	c-27.1,25.2-58.2,62.3-87.3,110.6c-41.1,68.4-77,163.1-56.5,268c-22.5-3.5-52.9-5.7-88.1-1.1c-54.9,7.2-96.3,27.6-120.6,42.2
	c-14.8,16-30.1,35.6-43.9,59c-51.1,86.8-51,175.1-47.3,220.4c-89.3,98.5-178.7,196.9-268,295.4c69.6,78.3,139.2,156.6,208.7,235
	c4.2-20.2,8.4-40.3,12.5-60.5l-149.4-167.7l200.7-231.5c48.1,104.6,146.4,162.1,233,145.9c60.8-11.4,98.8-56.1,113.1-75
	c4-4.9,73.5-91.6,38.3-187.2c-17.1-46.6-51-73.3-67.3-84.4c-57.5-18.1-114.7-2.3-141.4,36.5c-22,32-27.9,86.4,0.4,111.3
	c22.2,19.6,66.8,21.6,77.7,3.1c1.7-2.9,6.3-12.6-3.4-32.6c-21-7.8-32.4-28-28.5-45.4c3-13.2,14.2-22.6,25.7-26.1
	c14.3-4.4,30.2,0,41.1,11.4c6.7,5.2,46,36.8,50.2,91.2c4.9,63.8-42.6,104-48.8,109c-46.4,38-118.2,40.1-178.2,3.9
	c0,0-176.8-149.4,10.3-352.4c0,0,108.4-93.5,220.1-8l8,8c-8.8-28.2-17.5-64.9-20.5-108.4c-2.4-34.5-0.8-65,2.3-90.1
	c8-31.8,23.3-81.2,53.6-135.7c40.5-72.7,81.1-106.5,157.4-195c28.8-33.4,70.7-84,118.6-149.4c61.6,81.3,118.3,141.6,159.7,182.5
	c61.5,60.7,100,89.1,162,157.4c49.2,54.1,85.2,102.6,108.4,135.7c14.4,25.9,35.7,72.1,41.1,133.4c6.7,76.4-14.9,135.8-27.4,164.2
	c-20.9,36.5-41.8,73-62.7,109.5l-101.5,140.3l-3.4,73l146-171.1c14.5-18.6,29.7-39.8,44.5-63.9c19.8-32.1,35-62.7,46.8-90.1
	c5.5-30,10-63.2,12.5-99.2c1.7-24.1,2.4-46.9,2.3-68.4c-6.5-25.8-15-54.2-26.2-84.4c-10.5-28.3-21.9-53.8-33.1-76.4
	c-37.9-45.1-77.4-90.8-118.6-136.9c-27.9-31.2-55.6-61.6-83.3-91.2c-21.8-21.5-48-48.5-76.7-80.6c-41.8-46.8-60.1-72.5-110.3-131.6
	C1523.5,282.1,1498.6,253.5,1469.6,221.5z"/>
<ellipse class="st2" cx="1469" cy="479.3" rx="33.6" ry="37.6"/>
<circle class="st2" cx="1603" cy="605.9" r="36.5"/>
<ellipse class="st2" cx="1363.8" cy="610.7" rx="45.9" ry="41.3"/>
<circle class="st2" cx="1260" cy="735.1" r="33.9"/>
<circle class="st2" cx="1315" cy="1363.8" r="47.3"/>
<circle class="st2" cx="1441" cy="1440.8" r="24"/>
<ellipse class="st2" cx="803.8" cy="1508.5" rx="38.4" ry="42.6"/>
<ellipse class="st2" cx="2025.9" cy="1201.3" rx="36.8" ry="35.4"/>
<circle class="st2" cx="1471.3" cy="2380.1" r="36.7"/>
<ellipse class="st2" cx="1762.7" cy="2193.2" rx="34.8" ry="36.1"/>
<ellipse class="st2" cx="2254.3" cy="1487.9" rx="49.6" ry="28.8"/>
<path class="st2" d="M2061.5,1557.7c0,0,90.7-73.6,104.9,59.3C2166.5,1617,2090.6,1645.5,2061.5,1557.7z"/>
<path class="st2" d="M1945.2,1719.7c0,0,57.6-38.2,100.4-20.5c4.9,5.1,15.1,17.2,16.5,34.8c0.4,4.4,0.1,8.4-0.4,11.8
	c3,8.4,11.1,14,19.8,13.8c8.2-0.1,15.7-5.3,18.8-13.1c2.6-7.9,4.9-20.4,3.5-35.5c-1.8-19.7-10.6-43.2-38.9-58.6
	C2064.9,1652.4,1956.6,1643.3,1945.2,1719.7z"/>
<path class="st2" d="M1783.8,1996.3c0,0,110.1-46.2,127.2-6.8c0,0,32.5,72.4-50.2,51.3c0,0-42.2,27.4,1.1,50.2
	c0,0,65.6,55.3,106.1-46.8c0,0,26.2-87.3-41.6-106.1c-20.7-4.7-48.9-7.4-79.9,0.7c-19.2,5.1-51.2,13.5-60.4,38.6
	C1783.4,1984.8,1783.4,1991.6,1783.8,1996.3z"/>
<path class="st2" d="M2015.9,1810.9c1-11.7-8.9-22.3-18.8-30.2c-7.7-2.9-67.5-24.5-120.9,9.7c-25.8,16.5-39,38.9-45.1,51.3
	c-6.3,14.3-12.5,28.5-18.8,42.8c5.3,0.2,13.3,0.2,22.8-1.1c18.2-2.6,29.9-8.3,37.9-11.3c12.7-4.7,32.1-8.4,60.8-2.4
	c20.1,11.5,40.2,23,60.3,34.4c7.9,7.6,19.3,9,26.9,4.4c9.9-6.1,13.2-22.4,3.7-34.2c-23-12.6-28.4-22.7-28.2-30.2
	C1996.9,1830.9,2014.6,1825.7,2015.9,1810.9z"/>
<path class="st2" d="M2210.9,1320.7c-7.8-0.3-20.1,0.2-34.2,4.6c-16,5-23.7,11.9-64.6,47.9c-29.1,25.6-34.4,30.3-38,41.1
	c-5.9,17.6-1.6,34.6,2.3,44.9c17.6,1.8,31.5-0.6,41.8-3.8C2193.5,1431.9,2210.2,1325.6,2210.9,1320.7z"/>
<path class="st2" d="M1773.7,1502.4c-3.6-87.4,34.2-164.4,95-193.9c10.4-5,65.1-31.5,120.9-9.9c12.7,4.9,22.4,11.1,28.9,16
	c-0.5,5.7-2.1,14.1-7.6,22.1c-11.6,16.8-32.9,20.2-42.6,22.1c-20.9,3.9-82.9,15.6-120.9,49.4c-4.3,3.8-18.6,22.3-47.1,59.3
	C1789.1,1482,1779.9,1494.1,1773.7,1502.4z"/>
<path class="st2" d="M1982.1,1427.1c-10.5-4.4-33.6-12.3-60.8-6.1c-13,3-22.1,8.1-26.6,10.6c-39.8,22.8-57.8,69.8-63.1,85.2
	c1.5,7.4,3,14.7,4.6,22.1c2.5,4.9,6.6,10.9,12.2,11.4c6.7,0.6,12.4-7.2,22.1-22.1c7.1-10.9,15.9-24.7,25.7-41.1
	c9.9-5,21.9-10.1,35.9-14.4c16.9-5.2,32.2-7.8,44.9-9.1c2.5-6.8,5.1-13.7,7.6-20.5C1983.6,1437.8,1982.8,1432.4,1982.1,1427.1z"/>
<path class="st2" d="M1950.3,1529.2c-3.6,3-9.4,8.2-15.4,15.4c-15.3,18.4-17.7,32.7-37.1,81c-7.3,18.1-11,26.2-18,35.7
	c-8.4,11.5-17.3,19.3-23.5,24.1c2.1-16.9,4.2-33.9,6.4-50.9c2-15.4,4-30.7,6-46c-2.1-9.8-11.4-16.2-21.1-14.9
	c-9.2,1.3-16.2,9.4-16.2,18.9l-19.2,187.6c1.7-0.3,4.3-0.7,7.4-1.7c24.1-7.6,33.3-31.6,47.3-51.9c13.6-19.6,19.1-17.4,45.1-43.3
	c17.4-17.4,41.1-44.4,64.4-84.4c13-19.9,12.3-43.5-0.1-57.3C1967.6,1531.6,1955.2,1529.7,1950.3,1529.2z"/>
<path class="st2" d="M1246,1918.7c24.2,11.8,57.4-9.9,66.2-16c23.6,6,39.9,24.6,40.8,44.7c0.7,16.3-9.1,28.3-12.3,31.8
	c-3.9,4.9-34.2,42.1-85.5,42.6c-60.1,0.5-92.9-49.9-94.7-52.8c-6.2-12.6-32.8-69.6-11.9-139c19-63.2,65.2-95.6,78-104
	c13.9-7.2,83.3-41.2,162.6-13.7c44.7,15.5,72.7,43.6,86.1,59.1c0,0,96.9,90.4,51.3,239.8c0,0-63.9,192.2-225.8,218.1
	c-31.3,5.6-85.5,11.1-149.7-4.6c-76.9-18.7-128.7-58.2-153.7-80.1c-26.3-23.5-76.2-74.6-104.6-156.3
	c-37.1-106.4-14.6-198.4-4.8-231.5c10.6-33.8,31.6-85.1,74.1-135.7c68.4-81.4,151.9-112.8,189.3-124.3c23-6.2,150.6-37.9,277.2,38
	c110.6,66.3,147.6,171,156.2,198.1c0,0,27.4,149.4,0,172.2c-4.7-19.6-51.9-206.7-203.3-267.6c-86.5-34.8-194.6-23.4-206.2-22.1
	c-29.3,3.3-53.5,9-70.7,13.7c-14.7,6.9-122.5,59.4-148.1,177.4c-12.7,58.5,0.3,107.8,9,132.8c7.6,26.2,24.2,70.4,61.6,112.9
	c70,79.5,161.2,94.5,186.5,97.7c69.3,8.9,125-8.7,153.4-20.2c112.8-68.5,149.6-193.3,107.2-270.3c-46.7-84.9-189.8-112.5-235-66.2
	C1208.5,1824.7,1211.8,1902,1246,1918.7z"/>
<polygon class="st2" points="1266.5,2323.6 1477.5,2547.2 1664.6,2353.3 1607.6,2297.4 1641.8,2275.7 1714.8,2351 1479.8,2612.2 
	1240.3,2355.6 "/>
<path class="st2" d="M1624.7,967.5c-8.5,11.2-10.3,25.8-4.6,37.6c7.3,14.9,25.5,23.1,43.3,18.2c7.8-1.7,17.8-4.7,28.5-10.3
	c17.3-9,28.7-20.6,35.4-28.5c0-27.8,0-55.5,0-83.3l-45.6-76.4c-25.9-10.3-51.7-20.5-77.6-30.8c-19.4,6.5-38.8,12.9-58.2,19.4
	c-25.5,15.6-50.9,31.2-76.4,46.8c-16.3,40.7-32.7,81.4-49,122c1.1,34.6,2.3,69.2,3.4,103.8c8.4,29.3,22.7,73,46.8,123.2
	c27.9,58.1,54.6,95.1,82.9,136.6c31.7,46.5,76.5,115.1,128.1,204.4c11.5,33.9,22.5,71.5,32,112.6c10.9,46.9,18.1,90.7,22.7,130.4
	c-0.2,37.3-2.6,79-8.5,123.9c-4.1,31.2-9.4,60.3-15.4,87.1c-17.9,35.7-35.7,71.5-53.6,107.2c-24.3,28.1-48.7,56.3-73,84.4
	c-21.4,17.8-42.8,35.6-64.2,53.4c-19.6,4.6-39.3,9.3-58.9,13.9l36.5-33.9c22.4-20.2,48-46.6,73-80.1c21-28.1,36.9-55.1,49-78.7
	c13.8-36.5,27.7-73.1,41.5-109.6c1-72.6,2-145.2,3-217.7c-10.8-48.8-28.1-108-56.8-172.3c-32.6-72.9-70.2-131-102.9-174.4
	c-49-91.2-98.1-182.5-147.1-273.7c-8.3-28.8-16.5-69.7-14.6-118.6c3.1-82,32.6-143.6,51.1-175.7c6.7-14.3,20.5-39.1,46.8-61.6
	c26-22.2,52.2-32.1,67.3-36.5c27-6.5,54-12.9,81-19.4l123.2,24.2l90.1,116.1c2.8,26.8,4.7,56.6,4.6,89c-0.1,30.6-1.9,58.9-4.6,84.4
	c-2.8,12-8,28.3-18.2,45.6c-6.8,11.4-14.1,20.5-20.5,27.4c-11.6,9.4-31.1,22.8-58.2,30.8c-17.3,5.1-32.7,6.6-44.5,6.8
	c-17.1-2.4-38.4-6.9-61.6-16c-15.5-6-28.8-12.8-39.9-19.4c-7.1-10.1-16.9-26.6-22.8-49c-5.9-22.3-5.7-41.4-4.6-53.6
	c8.4-11.4,16.7-22.8,25.1-34.2c13-12.1,30.5-16.6,45.6-11.4C1615.5,955.4,1622,963.6,1624.7,967.5z"/>
</svg>
